<svg xmlns="http://www.w3.org/2000/svg" width="18.814" height="18.814" viewBox="0 0 18.814 18.814">
  <path id="Icon_ionic-md-call" data-name="Icon ionic-md-call" d="M22.268,17.565a12.267,12.267,0,0,1-3.71-.575.978.978,0,0,0-1.045.261l-2.3,2.3a15.717,15.717,0,0,1-6.9-6.9l2.3-2.3a1.089,1.089,0,0,0,.261-1.045,11.367,11.367,0,0,1-.627-3.763A1.048,1.048,0,0,0,9.2,4.5H5.545A1.048,1.048,0,0,0,4.5,5.545,17.754,17.754,0,0,0,22.268,23.314a1.049,1.049,0,0,0,1.045-1.045V18.61A1.049,1.049,0,0,0,22.268,17.565Z" transform="translate(-4.5 -4.5)" fill="#307cd8"/>
</svg>
