<svg xmlns="http://www.w3.org/2000/svg" width="16.219" height="22.301" viewBox="0 0 16.219 22.301">
  <path id="Icon_material-dialpad" data-name="Icon material-dialpad" d="M14.109,19.746a2.027,2.027,0,1,0,2.027,2.027A2.033,2.033,0,0,0,14.109,19.746ZM8.027,1.5a2.027,2.027,0,1,0,2.027,2.027A2.033,2.033,0,0,0,8.027,1.5Zm0,6.082a2.027,2.027,0,1,0,2.027,2.027A2.033,2.033,0,0,0,8.027,7.582Zm0,6.082a2.027,2.027,0,1,0,2.027,2.027A2.033,2.033,0,0,0,8.027,13.664ZM20.191,5.555a2.027,2.027,0,1,0-2.027-2.027A2.033,2.033,0,0,0,20.191,5.555Zm-6.082,8.109a2.027,2.027,0,1,0,2.027,2.027A2.033,2.033,0,0,0,14.109,13.664Zm6.082,0a2.027,2.027,0,1,0,2.027,2.027A2.033,2.033,0,0,0,20.191,13.664Zm0-6.082a2.027,2.027,0,1,0,2.027,2.027A2.033,2.033,0,0,0,20.191,7.582Zm-6.082,0a2.027,2.027,0,1,0,2.027,2.027A2.033,2.033,0,0,0,14.109,7.582Zm0-6.082a2.027,2.027,0,1,0,2.027,2.027A2.033,2.033,0,0,0,14.109,1.5Z" transform="translate(-6 -1.5)" fill="#307cd8"/>
</svg>
